<svg id="visual" viewBox="0 0 960 540" width="960" height="540" xmlns="http://www.w3.org/2000/svg" xmlns:xlink="http://www.w3.org/1999/xlink" version="1.1"><rect x="0" y="0" width="960" height="540" fill="#5f48b1"></rect><path d="M0 306L40 323.8C80 341.7 160 377.3 240 391.5C320 405.7 400 398.3 480 378.2C560 358 640 325 720 319.2C800 313.3 880 334.7 920 345.3L960 356L960 541L920 541C880 541 800 541 720 541C640 541 560 541 480 541C400 541 320 541 240 541C160 541 80 541 40 541L0 541Z" fill="white" stroke-linecap="round" stroke-linejoin="miter"></path></svg>