<svg id="visual" viewBox="0 0 960 540" width="960" height="540" xmlns="http://www.w3.org/2000/svg" xmlns:xlink="http://www.w3.org/1999/xlink" version="1.1"><rect x="0" y="0" width="960" height="540" fill="white"></rect><defs><linearGradient id="grad1_0" x1="43.8%" y1="0%" x2="100%" y2="100%"><stop offset="14.444444444444446%" stop-color="#e7e7e7" stop-opacity="1"></stop><stop offset="85.55555555555554%" stop-color="#e7e7e7" stop-opacity="1"></stop></linearGradient></defs><defs><linearGradient id="grad2_0" x1="0%" y1="0%" x2="56.3%" y2="100%"><stop offset="14.444444444444446%" stop-color="#e7e7e7" stop-opacity="1"></stop><stop offset="85.55555555555554%" stop-color="#e7e7e7" stop-opacity="1"></stop></linearGradient></defs><g transform="translate(960, 0)"><path d="M0 290C-25.8 292.9 -51.6 295.8 -79.2 295.6C-106.8 295.3 -136.2 291.9 -162 280.6C-187.8 269.3 -209.9 250 -227 227C-244.1 203.9 -256.2 177.1 -259.8 150C-263.4 122.9 -258.4 95.7 -263.7 70.7C-269 45.6 -284.5 22.8 -300 0L0 0Z" fill="#C62368"></path></g><g transform="translate(0, 540)"><path d="M0 -314C25.5 -306.9 51.1 -299.7 79.5 -296.5C107.9 -293.4 139.1 -294.2 162 -280.6C184.9 -267 199.3 -239 215 -215C230.6 -191 247.5 -171 256.3 -148C265.2 -125 265.9 -98.9 275.3 -73.8C284.7 -48.6 302.9 -24.3 321 0L0 0Z" fill="#C62368"></path></g></svg>